<svg width="23" height="23" viewBox="0 0 23 23" fill="none" xmlns="http://www.w3.org/2000/svg">
<path d="M21.2799 5.30396C17.8394 -0.000175336 10.815 -1.57708 5.36752 1.72008C0.0633816 5.01725 -1.65688 12.185 1.78364 17.4891L2.07035 17.9192L0.923512 22.2198L5.22416 21.073L5.65423 21.3597C7.51784 22.3632 9.52481 22.9366 11.5318 22.9366C13.6821 22.9366 15.8324 22.3632 17.696 21.2164C23.0002 17.7758 24.5771 10.7514 21.2799 5.30396ZM18.2695 16.3423C17.696 17.2024 16.9793 17.7758 15.9758 17.9192C15.4024 17.9192 14.6856 18.2059 11.8185 17.0591C9.38145 15.9122 7.37449 14.0486 5.94094 11.8983C5.08081 10.8948 4.65074 9.60461 4.50739 8.31441C4.50739 7.16757 4.93745 6.16409 5.65423 5.44731C5.94094 5.1606 6.22765 5.01725 6.51436 5.01725H7.23113C7.51784 5.01725 7.80455 5.01725 7.94791 5.59067C8.23462 6.30744 8.95139 8.0277 8.95139 8.17106C9.09474 8.31441 9.09474 8.60112 8.95139 8.74448C9.09474 9.03119 8.95139 9.3179 8.80803 9.46125C8.66468 9.60461 8.52133 9.89132 8.37797 10.0347C8.09126 10.178 7.94791 10.4647 8.09126 10.7514C8.66468 11.6116 9.38145 12.4717 10.0982 13.1885C10.9584 13.9053 11.8185 14.4787 12.822 14.9087C13.1087 15.0521 13.3954 15.0521 13.5387 14.7654C13.6821 14.4787 14.3989 13.7619 14.6856 13.4752C14.9723 13.1885 15.1157 13.1885 15.4024 13.3318L17.696 14.4787C17.9828 14.622 18.2695 14.7654 18.4128 14.9087C18.5562 15.3388 18.5562 15.9122 18.2695 16.3423Z" fill="white"/>
</svg>
