<svg width="277" height="12" viewBox="0 0 277 12" fill="none" xmlns="http://www.w3.org/2000/svg">
<path d="M277 6.00002L267 0.226521L267 11.7735L277 6.00002ZM-8.74228e-08 7L1.00362 7L1.00362 5L8.74228e-08 5L-8.74228e-08 7ZM3.01087 7L5.01812 7L5.01812 5L3.01087 5L3.01087 7ZM7.02536 7L9.03261 7L9.03261 5L7.02536 5L7.02536 7ZM11.0399 7L13.0471 7L13.0471 5L11.0399 5L11.0399 7ZM15.0543 7L17.0616 7L17.0616 5L15.0543 5L15.0543 7ZM19.0688 7L21.0761 7L21.0761 5L19.0688 5L19.0688 7ZM23.0833 7L25.0906 7L25.0906 5L23.0833 5L23.0833 7ZM27.0978 7L29.1051 7L29.1051 5L27.0978 5L27.0978 7ZM31.1123 7L33.1196 7L33.1196 5L31.1123 5L31.1123 7ZM35.1268 7L37.1341 7L37.1341 5L35.1268 5L35.1268 7ZM39.1413 7L41.1486 7L41.1486 5L39.1413 5L39.1413 7ZM43.1558 7L45.1631 7L45.1631 5L43.1558 5L43.1558 7ZM47.1703 7L49.1775 7L49.1775 5L47.1703 5L47.1703 7ZM51.1848 7L53.192 7L53.192 5L51.1848 5L51.1848 7ZM55.1993 7L57.2065 7.00001L57.2065 5.00001L55.1993 5L55.1993 7ZM59.2138 7.00001L61.221 7.00001L61.221 5.00001L59.2138 5.00001L59.2138 7.00001ZM63.2283 7.00001L65.2355 7.00001L65.2355 5.00001L63.2283 5.00001L63.2283 7.00001ZM67.2428 7.00001L69.25 7.00001L69.25 5.00001L67.2428 5.00001L67.2428 7.00001ZM71.2573 7.00001L73.2645 7.00001L73.2645 5.00001L71.2573 5.00001L71.2573 7.00001ZM75.2718 7.00001L77.279 7.00001L77.279 5.00001L75.2718 5.00001L75.2718 7.00001ZM79.2863 7.00001L81.2935 7.00001L81.2935 5.00001L79.2863 5.00001L79.2863 7.00001ZM83.3008 7.00001L85.308 7.00001L85.308 5.00001L83.3008 5.00001L83.3008 7.00001ZM87.3153 7.00001L89.3225 7.00001L89.3225 5.00001L87.3153 5.00001L87.3153 7.00001ZM91.3297 7.00001L93.337 7.00001L93.337 5.00001L91.3297 5.00001L91.3297 7.00001ZM95.3442 7.00001L97.3515 7.00001L97.3515 5.00001L95.3442 5.00001L95.3442 7.00001ZM99.3587 7.00001L101.366 7.00001L101.366 5.00001L99.3587 5.00001L99.3587 7.00001ZM103.373 7.00001L105.38 7.00001L105.38 5.00001L103.373 5.00001L103.373 7.00001ZM107.388 7.00001L109.395 7.00001L109.395 5.00001L107.388 5.00001L107.388 7.00001ZM111.402 7.00001L113.409 7.00001L113.409 5.00001L111.402 5.00001L111.402 7.00001ZM115.417 7.00001L117.424 7.00001L117.424 5.00001L115.417 5.00001L115.417 7.00001ZM119.431 7.00001L121.438 7.00001L121.438 5.00001L119.431 5.00001L119.431 7.00001ZM123.446 7.00001L125.453 7.00001L125.453 5.00001L123.446 5.00001L123.446 7.00001ZM127.46 7.00001L129.467 7.00001L129.467 5.00001L127.46 5.00001L127.46 7.00001ZM131.475 7.00001L133.482 7.00001L133.482 5.00001L131.475 5.00001L131.475 7.00001ZM135.489 7.00001L137.496 7.00001L137.496 5.00001L135.489 5.00001L135.489 7.00001ZM139.504 7.00001L141.511 7.00001L141.511 5.00001L139.504 5.00001L139.504 7.00001ZM143.518 7.00001L145.525 7.00001L145.525 5.00001L143.518 5.00001L143.518 7.00001ZM147.533 7.00001L149.54 7.00001L149.54 5.00001L147.533 5.00001L147.533 7.00001ZM151.547 7.00001L153.554 7.00001L153.554 5.00001L151.547 5.00001L151.547 7.00001ZM155.562 7.00001L157.569 7.00001L157.569 5.00001L155.562 5.00001L155.562 7.00001ZM159.576 7.00001L161.583 7.00001L161.583 5.00001L159.576 5.00001L159.576 7.00001ZM163.591 7.00001L165.598 7.00001L165.598 5.00001L163.591 5.00001L163.591 7.00001ZM167.605 7.00001L169.612 7.00001L169.612 5.00001L167.605 5.00001L167.605 7.00001ZM171.62 7.00002L173.627 7.00002L173.627 5.00002L171.62 5.00002L171.62 7.00002ZM175.634 7.00002L177.641 7.00002L177.641 5.00002L175.634 5.00002L175.634 7.00002ZM179.649 7.00002L181.656 7.00002L181.656 5.00002L179.649 5.00002L179.649 7.00002ZM183.663 7.00002L185.67 7.00002L185.67 5.00002L183.663 5.00002L183.663 7.00002ZM187.678 7.00002L189.685 7.00002L189.685 5.00002L187.678 5.00002L187.678 7.00002ZM191.692 7.00002L193.699 7.00002L193.699 5.00002L191.692 5.00002L191.692 7.00002ZM195.707 7.00002L197.714 7.00002L197.714 5.00002L195.707 5.00002L195.707 7.00002ZM199.721 7.00002L201.728 7.00002L201.728 5.00002L199.721 5.00002L199.721 7.00002ZM203.736 7.00002L205.743 7.00002L205.743 5.00002L203.736 5.00002L203.736 7.00002ZM207.75 7.00002L209.757 7.00002L209.757 5.00002L207.75 5.00002L207.75 7.00002ZM211.765 7.00002L213.772 7.00002L213.772 5.00002L211.765 5.00002L211.765 7.00002ZM215.779 7.00002L217.786 7.00002L217.786 5.00002L215.779 5.00002L215.779 7.00002ZM219.794 7.00002L221.801 7.00002L221.801 5.00002L219.794 5.00002L219.794 7.00002ZM223.808 7.00002L225.815 7.00002L225.815 5.00002L223.808 5.00002L223.808 7.00002ZM227.823 7.00002L229.83 7.00002L229.83 5.00002L227.823 5.00002L227.823 7.00002ZM231.837 7.00002L233.844 7.00002L233.844 5.00002L231.837 5.00002L231.837 7.00002ZM235.852 7.00002L237.859 7.00002L237.859 5.00002L235.852 5.00002L235.852 7.00002ZM239.866 7.00002L241.873 7.00002L241.873 5.00002L239.866 5.00002L239.866 7.00002ZM243.881 7.00002L245.888 7.00002L245.888 5.00002L243.881 5.00002L243.881 7.00002ZM247.895 7.00002L249.902 7.00002L249.902 5.00002L247.895 5.00002L247.895 7.00002ZM251.91 7.00002L253.917 7.00002L253.917 5.00002L251.91 5.00002L251.91 7.00002ZM255.924 7.00002L257.931 7.00002L257.931 5.00002L255.924 5.00002L255.924 7.00002ZM259.939 7.00002L261.946 7.00002L261.946 5.00002L259.939 5.00002L259.939 7.00002ZM263.953 7.00002L265.96 7.00002L265.96 5.00002L263.953 5.00002L263.953 7.00002ZM267.967 7.00002L269.975 7.00002L269.975 5.00002L267.967 5.00002L267.967 7.00002ZM271.982 7.00002L273.989 7.00002L273.989 5.00002L271.982 5.00002L271.982 7.00002ZM277 6.00002L267 0.226521L267 11.7735L277 6.00002ZM-8.74228e-08 7L1.00362 7L1.00362 5L8.74228e-08 5L-8.74228e-08 7ZM3.01087 7L5.01812 7L5.01812 5L3.01087 5L3.01087 7ZM7.02536 7L9.03261 7L9.03261 5L7.02536 5L7.02536 7ZM11.0399 7L13.0471 7L13.0471 5L11.0399 5L11.0399 7ZM15.0543 7L17.0616 7L17.0616 5L15.0543 5L15.0543 7ZM19.0688 7L21.0761 7L21.0761 5L19.0688 5L19.0688 7ZM23.0833 7L25.0906 7L25.0906 5L23.0833 5L23.0833 7ZM27.0978 7L29.1051 7L29.1051 5L27.0978 5L27.0978 7ZM31.1123 7L33.1196 7L33.1196 5L31.1123 5L31.1123 7ZM35.1268 7L37.1341 7L37.1341 5L35.1268 5L35.1268 7ZM39.1413 7L41.1486 7L41.1486 5L39.1413 5L39.1413 7ZM43.1558 7L45.1631 7L45.1631 5L43.1558 5L43.1558 7ZM47.1703 7L49.1775 7L49.1775 5L47.1703 5L47.1703 7ZM51.1848 7L53.192 7L53.192 5L51.1848 5L51.1848 7ZM55.1993 7L57.2065 7.00001L57.2065 5.00001L55.1993 5L55.1993 7ZM59.2138 7.00001L61.221 7.00001L61.221 5.00001L59.2138 5.00001L59.2138 7.00001ZM63.2283 7.00001L65.2355 7.00001L65.2355 5.00001L63.2283 5.00001L63.2283 7.00001ZM67.2428 7.00001L69.25 7.00001L69.25 5.00001L67.2428 5.00001L67.2428 7.00001ZM71.2573 7.00001L73.2645 7.00001L73.2645 5.00001L71.2573 5.00001L71.2573 7.00001ZM75.2718 7.00001L77.279 7.00001L77.279 5.00001L75.2718 5.00001L75.2718 7.00001ZM79.2863 7.00001L81.2935 7.00001L81.2935 5.00001L79.2863 5.00001L79.2863 7.00001ZM83.3008 7.00001L85.308 7.00001L85.308 5.00001L83.3008 5.00001L83.3008 7.00001ZM87.3153 7.00001L89.3225 7.00001L89.3225 5.00001L87.3153 5.00001L87.3153 7.00001ZM91.3297 7.00001L93.337 7.00001L93.337 5.00001L91.3297 5.00001L91.3297 7.00001ZM95.3442 7.00001L97.3515 7.00001L97.3515 5.00001L95.3442 5.00001L95.3442 7.00001ZM99.3587 7.00001L101.366 7.00001L101.366 5.00001L99.3587 5.00001L99.3587 7.00001ZM103.373 7.00001L105.38 7.00001L105.38 5.00001L103.373 5.00001L103.373 7.00001ZM107.388 7.00001L109.395 7.00001L109.395 5.00001L107.388 5.00001L107.388 7.00001ZM111.402 7.00001L113.409 7.00001L113.409 5.00001L111.402 5.00001L111.402 7.00001ZM115.417 7.00001L117.424 7.00001L117.424 5.00001L115.417 5.00001L115.417 7.00001ZM119.431 7.00001L121.438 7.00001L121.438 5.00001L119.431 5.00001L119.431 7.00001ZM123.446 7.00001L125.453 7.00001L125.453 5.00001L123.446 5.00001L123.446 7.00001ZM127.46 7.00001L129.467 7.00001L129.467 5.00001L127.46 5.00001L127.46 7.00001ZM131.475 7.00001L133.482 7.00001L133.482 5.00001L131.475 5.00001L131.475 7.00001ZM135.489 7.00001L137.496 7.00001L137.496 5.00001L135.489 5.00001L135.489 7.00001ZM139.504 7.00001L141.511 7.00001L141.511 5.00001L139.504 5.00001L139.504 7.00001ZM143.518 7.00001L145.525 7.00001L145.525 5.00001L143.518 5.00001L143.518 7.00001ZM147.533 7.00001L149.54 7.00001L149.54 5.00001L147.533 5.00001L147.533 7.00001ZM151.547 7.00001L153.554 7.00001L153.554 5.00001L151.547 5.00001L151.547 7.00001ZM155.562 7.00001L157.569 7.00001L157.569 5.00001L155.562 5.00001L155.562 7.00001ZM159.576 7.00001L161.583 7.00001L161.583 5.00001L159.576 5.00001L159.576 7.00001ZM163.591 7.00001L165.598 7.00001L165.598 5.00001L163.591 5.00001L163.591 7.00001ZM167.605 7.00001L169.612 7.00001L169.612 5.00001L167.605 5.00001L167.605 7.00001ZM171.62 7.00002L173.627 7.00002L173.627 5.00002L171.62 5.00002L171.62 7.00002ZM175.634 7.00002L177.641 7.00002L177.641 5.00002L175.634 5.00002L175.634 7.00002ZM179.649 7.00002L181.656 7.00002L181.656 5.00002L179.649 5.00002L179.649 7.00002ZM183.663 7.00002L185.67 7.00002L185.67 5.00002L183.663 5.00002L183.663 7.00002ZM187.678 7.00002L189.685 7.00002L189.685 5.00002L187.678 5.00002L187.678 7.00002ZM191.692 7.00002L193.699 7.00002L193.699 5.00002L191.692 5.00002L191.692 7.00002ZM195.707 7.00002L197.714 7.00002L197.714 5.00002L195.707 5.00002L195.707 7.00002ZM199.721 7.00002L201.728 7.00002L201.728 5.00002L199.721 5.00002L199.721 7.00002ZM203.736 7.00002L205.743 7.00002L205.743 5.00002L203.736 5.00002L203.736 7.00002ZM207.75 7.00002L209.757 7.00002L209.757 5.00002L207.75 5.00002L207.75 7.00002ZM211.765 7.00002L213.772 7.00002L213.772 5.00002L211.765 5.00002L211.765 7.00002ZM215.779 7.00002L217.786 7.00002L217.786 5.00002L215.779 5.00002L215.779 7.00002ZM219.794 7.00002L221.801 7.00002L221.801 5.00002L219.794 5.00002L219.794 7.00002ZM223.808 7.00002L225.815 7.00002L225.815 5.00002L223.808 5.00002L223.808 7.00002ZM227.823 7.00002L229.83 7.00002L229.83 5.00002L227.823 5.00002L227.823 7.00002ZM231.837 7.00002L233.844 7.00002L233.844 5.00002L231.837 5.00002L231.837 7.00002ZM235.852 7.00002L237.859 7.00002L237.859 5.00002L235.852 5.00002L235.852 7.00002ZM239.866 7.00002L241.873 7.00002L241.873 5.00002L239.866 5.00002L239.866 7.00002ZM243.881 7.00002L245.888 7.00002L245.888 5.00002L243.881 5.00002L243.881 7.00002ZM247.895 7.00002L249.902 7.00002L249.902 5.00002L247.895 5.00002L247.895 7.00002ZM251.91 7.00002L253.917 7.00002L253.917 5.00002L251.91 5.00002L251.91 7.00002ZM255.924 7.00002L257.931 7.00002L257.931 5.00002L255.924 5.00002L255.924 7.00002ZM259.939 7.00002L261.946 7.00002L261.946 5.00002L259.939 5.00002L259.939 7.00002ZM263.953 7.00002L265.96 7.00002L265.96 5.00002L263.953 5.00002L263.953 7.00002ZM267.967 7.00002L269.975 7.00002L269.975 5.00002L267.967 5.00002L267.967 7.00002ZM271.982 7.00002L273.989 7.00002L273.989 5.00002L271.982 5.00002L271.982 7.00002Z" fill="url(#paint0_linear_130_540)"/>
<defs>
<linearGradient id="paint0_linear_130_540" x1="-4.37114e-08" y1="6.5" x2="277" y2="6.50002" gradientUnits="userSpaceOnUse">
<stop stop-color="white"/>
<stop offset="1" stop-color="#2B660B"/>
</linearGradient>
</defs>
</svg>
