<svg width="209" height="12" viewBox="0 0 209 12" fill="none" xmlns="http://www.w3.org/2000/svg">
<path d="M-1.52588e-05 6.00002L9.99998 0.226515L9.99999 11.7735L-1.52588e-05 6.00002ZM209 7L207.995 7L207.995 5L209 5L209 7ZM205.986 7L203.976 7L203.976 5L205.986 5L205.986 7ZM201.966 7L199.957 7L199.957 5L201.966 5L201.966 7ZM197.947 7L195.938 7L195.937 5L197.947 5L197.947 7ZM193.928 7L191.918 7L191.918 5L193.928 5L193.928 7ZM189.909 7L187.899 7L187.899 5L189.909 5L189.909 7ZM185.889 7L183.88 7L183.88 5L185.889 5L185.889 7ZM181.87 7L179.861 7L179.861 5L181.87 5L181.87 7ZM177.851 7L175.841 7L175.841 5L177.851 5L177.851 7ZM173.832 7L171.822 7L171.822 5L173.832 5L173.832 7ZM169.813 7L167.803 7L167.803 5L169.812 5L169.813 7ZM165.793 7L163.784 7L163.784 5L165.793 5L165.793 7ZM161.774 7L159.764 7L159.764 5L161.774 5L161.774 7ZM157.755 7L155.745 7L155.745 5L157.755 5L157.755 7ZM153.736 7L151.726 7.00001L151.726 5.00001L153.736 5L153.736 7ZM149.716 7.00001L147.707 7.00001L147.707 5.00001L149.716 5.00001L149.716 7.00001ZM145.697 7.00001L143.687 7.00001L143.687 5.00001L145.697 5.00001L145.697 7.00001ZM141.678 7.00001L139.668 7.00001L139.668 5.00001L141.678 5.00001L141.678 7.00001ZM137.659 7.00001L135.649 7.00001L135.649 5.00001L137.659 5.00001L137.659 7.00001ZM133.639 7.00001L131.63 7.00001L131.63 5.00001L133.639 5.00001L133.639 7.00001ZM129.62 7.00001L127.611 7.00001L127.611 5.00001L129.62 5.00001L129.62 7.00001ZM125.601 7.00001L123.591 7.00001L123.591 5.00001L125.601 5.00001L125.601 7.00001ZM121.582 7.00001L119.572 7.00001L119.572 5.00001L121.582 5.00001L121.582 7.00001ZM117.563 7.00001L115.553 7.00001L115.553 5.00001L117.563 5.00001L117.563 7.00001ZM113.543 7.00001L111.534 7.00001L111.534 5.00001L113.543 5.00001L113.543 7.00001ZM109.524 7.00001L107.514 7.00001L107.514 5.00001L109.524 5.00001L109.524 7.00001ZM105.505 7.00001L103.495 7.00001L103.495 5.00001L105.505 5.00001L105.505 7.00001ZM101.486 7.00001L99.476 7.00001L99.476 5.00001L101.486 5.00001L101.486 7.00001ZM97.4664 7.00001L95.4568 7.00001L95.4568 5.00001L97.4664 5.00001L97.4664 7.00001ZM93.4472 7.00001L91.4375 7.00001L91.4375 5.00001L93.4472 5.00001L93.4472 7.00001ZM89.4279 7.00001L87.4183 7.00001L87.4183 5.00001L89.4279 5.00001L89.4279 7.00001ZM85.4087 7.00001L83.3991 7.00001L83.3991 5.00001L85.4087 5.00001L85.4087 7.00001ZM81.3895 7.00001L79.3799 7.00001L79.3799 5.00001L81.3895 5.00001L81.3895 7.00001ZM77.3703 7.00001L75.3606 7.00001L75.3606 5.00001L77.3703 5.00001L77.3703 7.00001ZM73.351 7.00001L71.3414 7.00001L71.3414 5.00001L73.351 5.00001L73.351 7.00001ZM69.3318 7.00001L67.3222 7.00001L67.3222 5.00001L69.3318 5.00001L69.3318 7.00001ZM65.3126 7.00001L63.303 7.00001L63.303 5.00001L65.3126 5.00001L65.3126 7.00001ZM61.2934 7.00001L59.2837 7.00001L59.2837 5.00001L61.2934 5.00001L61.2934 7.00001ZM57.2741 7.00001L55.2645 7.00001L55.2645 5.00001L57.2741 5.00001L57.2741 7.00001ZM53.2549 7.00001L51.2453 7.00001L51.2453 5.00001L53.2549 5.00001L53.2549 7.00001ZM49.2357 7.00001L47.2261 7.00001L47.2261 5.00001L49.2357 5.00001L49.2357 7.00001ZM45.2164 7.00001L43.2068 7.00001L43.2068 5.00001L45.2164 5.00001L45.2164 7.00001ZM41.1972 7.00001L39.1876 7.00001L39.1876 5.00001L41.1972 5.00001L41.1972 7.00001ZM37.178 7.00002L35.1684 7.00002L35.1684 5.00002L37.178 5.00002L37.178 7.00002ZM33.1588 7.00002L31.1492 7.00002L31.1492 5.00002L33.1588 5.00002L33.1588 7.00002ZM29.1395 7.00002L27.1299 7.00002L27.1299 5.00002L29.1395 5.00002L29.1395 7.00002ZM25.1203 7.00002L23.1107 7.00002L23.1107 5.00002L25.1203 5.00002L25.1203 7.00002ZM21.1011 7.00002L19.0915 7.00002L19.0915 5.00002L21.1011 5.00002L21.1011 7.00002ZM17.0819 7.00002L15.0723 7.00002L15.0723 5.00002L17.0819 5.00002L17.0819 7.00002ZM13.0626 7.00002L11.053 7.00002L11.053 5.00002L13.0626 5.00002L13.0626 7.00002ZM9.04341 7.00002L7.0338 7.00002L7.0338 5.00002L9.04341 5.00002L9.04341 7.00002ZM5.02419 7.00002L3.01457 7.00002L3.01457 5.00002L5.02419 5.00002L5.02419 7.00002ZM-1.52588e-05 6.00002L9.99998 0.226515L9.99999 11.7735L-1.52588e-05 6.00002ZM209 7L207.995 7L207.995 5L209 5L209 7ZM205.986 7L203.976 7L203.976 5L205.986 5L205.986 7ZM201.966 7L199.957 7L199.957 5L201.966 5L201.966 7ZM197.947 7L195.938 7L195.937 5L197.947 5L197.947 7ZM193.928 7L191.918 7L191.918 5L193.928 5L193.928 7ZM189.909 7L187.899 7L187.899 5L189.909 5L189.909 7ZM185.889 7L183.88 7L183.88 5L185.889 5L185.889 7ZM181.87 7L179.861 7L179.861 5L181.87 5L181.87 7ZM177.851 7L175.841 7L175.841 5L177.851 5L177.851 7ZM173.832 7L171.822 7L171.822 5L173.832 5L173.832 7ZM169.813 7L167.803 7L167.803 5L169.812 5L169.813 7ZM165.793 7L163.784 7L163.784 5L165.793 5L165.793 7ZM161.774 7L159.764 7L159.764 5L161.774 5L161.774 7ZM157.755 7L155.745 7L155.745 5L157.755 5L157.755 7ZM153.736 7L151.726 7.00001L151.726 5.00001L153.736 5L153.736 7ZM149.716 7.00001L147.707 7.00001L147.707 5.00001L149.716 5.00001L149.716 7.00001ZM145.697 7.00001L143.687 7.00001L143.687 5.00001L145.697 5.00001L145.697 7.00001ZM141.678 7.00001L139.668 7.00001L139.668 5.00001L141.678 5.00001L141.678 7.00001ZM137.659 7.00001L135.649 7.00001L135.649 5.00001L137.659 5.00001L137.659 7.00001ZM133.639 7.00001L131.63 7.00001L131.63 5.00001L133.639 5.00001L133.639 7.00001ZM129.62 7.00001L127.611 7.00001L127.611 5.00001L129.62 5.00001L129.62 7.00001ZM125.601 7.00001L123.591 7.00001L123.591 5.00001L125.601 5.00001L125.601 7.00001ZM121.582 7.00001L119.572 7.00001L119.572 5.00001L121.582 5.00001L121.582 7.00001ZM117.563 7.00001L115.553 7.00001L115.553 5.00001L117.563 5.00001L117.563 7.00001ZM113.543 7.00001L111.534 7.00001L111.534 5.00001L113.543 5.00001L113.543 7.00001ZM109.524 7.00001L107.514 7.00001L107.514 5.00001L109.524 5.00001L109.524 7.00001ZM105.505 7.00001L103.495 7.00001L103.495 5.00001L105.505 5.00001L105.505 7.00001ZM101.486 7.00001L99.476 7.00001L99.476 5.00001L101.486 5.00001L101.486 7.00001ZM97.4664 7.00001L95.4568 7.00001L95.4568 5.00001L97.4664 5.00001L97.4664 7.00001ZM93.4472 7.00001L91.4375 7.00001L91.4375 5.00001L93.4472 5.00001L93.4472 7.00001ZM89.4279 7.00001L87.4183 7.00001L87.4183 5.00001L89.4279 5.00001L89.4279 7.00001ZM85.4087 7.00001L83.3991 7.00001L83.3991 5.00001L85.4087 5.00001L85.4087 7.00001ZM81.3895 7.00001L79.3799 7.00001L79.3799 5.00001L81.3895 5.00001L81.3895 7.00001ZM77.3703 7.00001L75.3606 7.00001L75.3606 5.00001L77.3703 5.00001L77.3703 7.00001ZM73.351 7.00001L71.3414 7.00001L71.3414 5.00001L73.351 5.00001L73.351 7.00001ZM69.3318 7.00001L67.3222 7.00001L67.3222 5.00001L69.3318 5.00001L69.3318 7.00001ZM65.3126 7.00001L63.303 7.00001L63.303 5.00001L65.3126 5.00001L65.3126 7.00001ZM61.2934 7.00001L59.2837 7.00001L59.2837 5.00001L61.2934 5.00001L61.2934 7.00001ZM57.2741 7.00001L55.2645 7.00001L55.2645 5.00001L57.2741 5.00001L57.2741 7.00001ZM53.2549 7.00001L51.2453 7.00001L51.2453 5.00001L53.2549 5.00001L53.2549 7.00001ZM49.2357 7.00001L47.2261 7.00001L47.2261 5.00001L49.2357 5.00001L49.2357 7.00001ZM45.2164 7.00001L43.2068 7.00001L43.2068 5.00001L45.2164 5.00001L45.2164 7.00001ZM41.1972 7.00001L39.1876 7.00001L39.1876 5.00001L41.1972 5.00001L41.1972 7.00001ZM37.178 7.00002L35.1684 7.00002L35.1684 5.00002L37.178 5.00002L37.178 7.00002ZM33.1588 7.00002L31.1492 7.00002L31.1492 5.00002L33.1588 5.00002L33.1588 7.00002ZM29.1395 7.00002L27.1299 7.00002L27.1299 5.00002L29.1395 5.00002L29.1395 7.00002ZM25.1203 7.00002L23.1107 7.00002L23.1107 5.00002L25.1203 5.00002L25.1203 7.00002ZM21.1011 7.00002L19.0915 7.00002L19.0915 5.00002L21.1011 5.00002L21.1011 7.00002ZM17.0819 7.00002L15.0723 7.00002L15.0723 5.00002L17.0819 5.00002L17.0819 7.00002ZM13.0626 7.00002L11.053 7.00002L11.053 5.00002L13.0626 5.00002L13.0626 7.00002ZM9.04341 7.00002L7.0338 7.00002L7.0338 5.00002L9.04341 5.00002L9.04341 7.00002ZM5.02419 7.00002L3.01457 7.00002L3.01457 5.00002L5.02419 5.00002L5.02419 7.00002Z" fill="url(#paint0_linear_130_539)"/>
<defs>
<linearGradient id="paint0_linear_130_539" x1="209" y1="6.5" x2="4.37114e-08" y2="6.50002" gradientUnits="userSpaceOnUse">
<stop stop-color="white"/>
<stop offset="1" stop-color="#2B660B"/>
</linearGradient>
</defs>
</svg>
