<svg width="272" height="12" viewBox="0 0 272 12" fill="none" xmlns="http://www.w3.org/2000/svg">
<path d="M272 6.00002L262 0.22652L262 11.7735L272 6.00002ZM-8.74228e-08 7L1 7L1 5L8.74228e-08 5L-8.74228e-08 7ZM3 7L5 7L5 5L3 5L3 7ZM7 7L9 7L9 5L7 5L7 7ZM11 7L13 7L13 5L11 5L11 7ZM15 7L17 7L17 5L15 5L15 7ZM19 7L21 7L21 5L19 5L19 7ZM23 7L25 7L25 5L23 5L23 7ZM27 7L29 7L29 5L27 5L27 7ZM31 7L33 7L33 5L31 5L31 7ZM35 7L37 7L37 5L35 5L35 7ZM39 7L41 7L41 5L39 5L39 7ZM43 7L45 7L45 5L43 5L43 7ZM47 7L49 7L49 5L47 5L47 7ZM51 7L53 7L53 5L51 5L51 7ZM55 7L57 7L57 5L55 5L55 7ZM59 7.00001L61 7.00001L61 5.00001L59 5.00001L59 7.00001ZM63 7.00001L65 7.00001L65 5.00001L63 5.00001L63 7.00001ZM67 7.00001L69 7.00001L69 5.00001L67 5.00001L67 7.00001ZM71 7.00001L73 7.00001L73 5.00001L71 5.00001L71 7.00001ZM75 7.00001L77 7.00001L77 5.00001L75 5.00001L75 7.00001ZM79 7.00001L81 7.00001L81 5.00001L79 5.00001L79 7.00001ZM83 7.00001L85 7.00001L85 5.00001L83 5.00001L83 7.00001ZM87 7.00001L89 7.00001L89 5.00001L87 5.00001L87 7.00001ZM91 7.00001L93 7.00001L93 5.00001L91 5.00001L91 7.00001ZM95 7.00001L97 7.00001L97 5.00001L95 5.00001L95 7.00001ZM99 7.00001L101 7.00001L101 5.00001L99 5.00001L99 7.00001ZM103 7.00001L105 7.00001L105 5.00001L103 5.00001L103 7.00001ZM107 7.00001L109 7.00001L109 5.00001L107 5.00001L107 7.00001ZM111 7.00001L113 7.00001L113 5.00001L111 5.00001L111 7.00001ZM115 7.00001L117 7.00001L117 5.00001L115 5.00001L115 7.00001ZM119 7.00001L121 7.00001L121 5.00001L119 5.00001L119 7.00001ZM123 7.00001L125 7.00001L125 5.00001L123 5.00001L123 7.00001ZM127 7.00001L129 7.00001L129 5.00001L127 5.00001L127 7.00001ZM131 7.00001L133 7.00001L133 5.00001L131 5.00001L131 7.00001ZM135 7.00001L137 7.00001L137 5.00001L135 5.00001L135 7.00001ZM139 7.00001L141 7.00001L141 5.00001L139 5.00001L139 7.00001ZM143 7.00001L145 7.00001L145 5.00001L143 5.00001L143 7.00001ZM147 7.00001L149 7.00001L149 5.00001L147 5.00001L147 7.00001ZM151 7.00001L153 7.00001L153 5.00001L151 5.00001L151 7.00001ZM155 7.00001L157 7.00001L157 5.00001L155 5.00001L155 7.00001ZM159 7.00001L161 7.00001L161 5.00001L159 5.00001L159 7.00001ZM163 7.00001L165 7.00001L165 5.00001L163 5.00001L163 7.00001ZM167 7.00001L169 7.00001L169 5.00001L167 5.00001L167 7.00001ZM171 7.00001L173 7.00002L173 5.00002L171 5.00001L171 7.00001ZM175 7.00002L177 7.00002L177 5.00002L175 5.00002L175 7.00002ZM179 7.00002L181 7.00002L181 5.00002L179 5.00002L179 7.00002ZM183 7.00002L185 7.00002L185 5.00002L183 5.00002L183 7.00002ZM187 7.00002L189 7.00002L189 5.00002L187 5.00002L187 7.00002ZM191 7.00002L193 7.00002L193 5.00002L191 5.00002L191 7.00002ZM195 7.00002L197 7.00002L197 5.00002L195 5.00002L195 7.00002ZM199 7.00002L201 7.00002L201 5.00002L199 5.00002L199 7.00002ZM203 7.00002L205 7.00002L205 5.00002L203 5.00002L203 7.00002ZM207 7.00002L209 7.00002L209 5.00002L207 5.00002L207 7.00002ZM211 7.00002L213 7.00002L213 5.00002L211 5.00002L211 7.00002ZM215 7.00002L217 7.00002L217 5.00002L215 5.00002L215 7.00002ZM219 7.00002L221 7.00002L221 5.00002L219 5.00002L219 7.00002ZM223 7.00002L225 7.00002L225 5.00002L223 5.00002L223 7.00002ZM227 7.00002L229 7.00002L229 5.00002L227 5.00002L227 7.00002ZM231 7.00002L233 7.00002L233 5.00002L231 5.00002L231 7.00002ZM235 7.00002L237 7.00002L237 5.00002L235 5.00002L235 7.00002ZM239 7.00002L241 7.00002L241 5.00002L239 5.00002L239 7.00002ZM243 7.00002L245 7.00002L245 5.00002L243 5.00002L243 7.00002ZM247 7.00002L249 7.00002L249 5.00002L247 5.00002L247 7.00002ZM251 7.00002L253 7.00002L253 5.00002L251 5.00002L251 7.00002ZM255 7.00002L257 7.00002L257 5.00002L255 5.00002L255 7.00002ZM259 7.00002L261 7.00002L261 5.00002L259 5.00002L259 7.00002ZM263 7.00002L265 7.00002L265 5.00002L263 5.00002L263 7.00002ZM267 7.00002L269 7.00002L269 5.00002L267 5.00002L267 7.00002ZM272 6.00002L262 0.22652L262 11.7735L272 6.00002ZM-8.74228e-08 7L1 7L1 5L8.74228e-08 5L-8.74228e-08 7ZM3 7L5 7L5 5L3 5L3 7ZM7 7L9 7L9 5L7 5L7 7ZM11 7L13 7L13 5L11 5L11 7ZM15 7L17 7L17 5L15 5L15 7ZM19 7L21 7L21 5L19 5L19 7ZM23 7L25 7L25 5L23 5L23 7ZM27 7L29 7L29 5L27 5L27 7ZM31 7L33 7L33 5L31 5L31 7ZM35 7L37 7L37 5L35 5L35 7ZM39 7L41 7L41 5L39 5L39 7ZM43 7L45 7L45 5L43 5L43 7ZM47 7L49 7L49 5L47 5L47 7ZM51 7L53 7L53 5L51 5L51 7ZM55 7L57 7L57 5L55 5L55 7ZM59 7.00001L61 7.00001L61 5.00001L59 5.00001L59 7.00001ZM63 7.00001L65 7.00001L65 5.00001L63 5.00001L63 7.00001ZM67 7.00001L69 7.00001L69 5.00001L67 5.00001L67 7.00001ZM71 7.00001L73 7.00001L73 5.00001L71 5.00001L71 7.00001ZM75 7.00001L77 7.00001L77 5.00001L75 5.00001L75 7.00001ZM79 7.00001L81 7.00001L81 5.00001L79 5.00001L79 7.00001ZM83 7.00001L85 7.00001L85 5.00001L83 5.00001L83 7.00001ZM87 7.00001L89 7.00001L89 5.00001L87 5.00001L87 7.00001ZM91 7.00001L93 7.00001L93 5.00001L91 5.00001L91 7.00001ZM95 7.00001L97 7.00001L97 5.00001L95 5.00001L95 7.00001ZM99 7.00001L101 7.00001L101 5.00001L99 5.00001L99 7.00001ZM103 7.00001L105 7.00001L105 5.00001L103 5.00001L103 7.00001ZM107 7.00001L109 7.00001L109 5.00001L107 5.00001L107 7.00001ZM111 7.00001L113 7.00001L113 5.00001L111 5.00001L111 7.00001ZM115 7.00001L117 7.00001L117 5.00001L115 5.00001L115 7.00001ZM119 7.00001L121 7.00001L121 5.00001L119 5.00001L119 7.00001ZM123 7.00001L125 7.00001L125 5.00001L123 5.00001L123 7.00001ZM127 7.00001L129 7.00001L129 5.00001L127 5.00001L127 7.00001ZM131 7.00001L133 7.00001L133 5.00001L131 5.00001L131 7.00001ZM135 7.00001L137 7.00001L137 5.00001L135 5.00001L135 7.00001ZM139 7.00001L141 7.00001L141 5.00001L139 5.00001L139 7.00001ZM143 7.00001L145 7.00001L145 5.00001L143 5.00001L143 7.00001ZM147 7.00001L149 7.00001L149 5.00001L147 5.00001L147 7.00001ZM151 7.00001L153 7.00001L153 5.00001L151 5.00001L151 7.00001ZM155 7.00001L157 7.00001L157 5.00001L155 5.00001L155 7.00001ZM159 7.00001L161 7.00001L161 5.00001L159 5.00001L159 7.00001ZM163 7.00001L165 7.00001L165 5.00001L163 5.00001L163 7.00001ZM167 7.00001L169 7.00001L169 5.00001L167 5.00001L167 7.00001ZM171 7.00001L173 7.00002L173 5.00002L171 5.00001L171 7.00001ZM175 7.00002L177 7.00002L177 5.00002L175 5.00002L175 7.00002ZM179 7.00002L181 7.00002L181 5.00002L179 5.00002L179 7.00002ZM183 7.00002L185 7.00002L185 5.00002L183 5.00002L183 7.00002ZM187 7.00002L189 7.00002L189 5.00002L187 5.00002L187 7.00002ZM191 7.00002L193 7.00002L193 5.00002L191 5.00002L191 7.00002ZM195 7.00002L197 7.00002L197 5.00002L195 5.00002L195 7.00002ZM199 7.00002L201 7.00002L201 5.00002L199 5.00002L199 7.00002ZM203 7.00002L205 7.00002L205 5.00002L203 5.00002L203 7.00002ZM207 7.00002L209 7.00002L209 5.00002L207 5.00002L207 7.00002ZM211 7.00002L213 7.00002L213 5.00002L211 5.00002L211 7.00002ZM215 7.00002L217 7.00002L217 5.00002L215 5.00002L215 7.00002ZM219 7.00002L221 7.00002L221 5.00002L219 5.00002L219 7.00002ZM223 7.00002L225 7.00002L225 5.00002L223 5.00002L223 7.00002ZM227 7.00002L229 7.00002L229 5.00002L227 5.00002L227 7.00002ZM231 7.00002L233 7.00002L233 5.00002L231 5.00002L231 7.00002ZM235 7.00002L237 7.00002L237 5.00002L235 5.00002L235 7.00002ZM239 7.00002L241 7.00002L241 5.00002L239 5.00002L239 7.00002ZM243 7.00002L245 7.00002L245 5.00002L243 5.00002L243 7.00002ZM247 7.00002L249 7.00002L249 5.00002L247 5.00002L247 7.00002ZM251 7.00002L253 7.00002L253 5.00002L251 5.00002L251 7.00002ZM255 7.00002L257 7.00002L257 5.00002L255 5.00002L255 7.00002ZM259 7.00002L261 7.00002L261 5.00002L259 5.00002L259 7.00002ZM263 7.00002L265 7.00002L265 5.00002L263 5.00002L263 7.00002ZM267 7.00002L269 7.00002L269 5.00002L267 5.00002L267 7.00002Z" fill="url(#paint0_linear_130_614)"/>
<defs>
<linearGradient id="paint0_linear_130_614" x1="-4.37114e-08" y1="6.5" x2="272" y2="6.50002" gradientUnits="userSpaceOnUse">
<stop stop-color="white"/>
<stop offset="1" stop-color="#2B660B"/>
</linearGradient>
</defs>
</svg>
