<svg width="48" height="48" viewBox="0 0 48 48" fill="none" xmlns="http://www.w3.org/2000/svg">
<g clip-path="url(#clip0_154_676)">
<path d="M24 28.218C26.325 28.218 28.2281 26.3242 28.2281 23.9898C28.2281 23.0711 27.9281 22.218 27.4312 21.5242C26.6625 20.4648 25.4156 19.7617 24.0094 19.7617C22.6031 19.7617 21.3562 20.4555 20.5875 21.5242C20.0906 22.218 19.7906 23.0711 19.7906 23.9898C19.7812 26.3242 21.675 28.218 24 28.218Z" fill="white"/>
<path d="M33.225 18.8344V15.2906V14.7656H32.7L29.1562 14.775L29.175 18.8438L33.225 18.8344Z" fill="white"/>
<path d="M30.5625 24.0008C30.5625 27.6195 27.6187 30.5633 24 30.5633C20.3813 30.5633 17.4375 27.6195 17.4375 24.0008C17.4375 23.1289 17.6156 22.2945 17.925 21.5352H14.3438V31.3602C14.3438 32.6258 15.375 33.657 16.6406 33.657H31.3594C32.625 33.657 33.6562 32.6258 33.6562 31.3602V21.5352H30.075C30.3938 22.2945 30.5625 23.1289 30.5625 24.0008Z" fill="white"/>
<path d="M24 0C10.7438 0 0 10.7438 0 24C0 37.2562 10.7438 48 24 48C37.2562 48 48 37.2562 48 24C48 10.7438 37.2562 0 24 0ZM36 21.5344V31.3594C36 33.9188 33.9188 36 31.3594 36H16.6406C14.0813 36 12 33.9188 12 31.3594V21.5344V16.6312C12 14.0719 14.0813 11.9906 16.6406 11.9906H31.3594C33.9188 11.9906 36 14.0719 36 16.6312V21.5344Z" fill="white"/>
</g>
<defs>
<clipPath id="clip0_154_676">
<rect width="48" height="48" fill="white"/>
</clipPath>
</defs>
</svg>
