<svg width="49" height="49" viewBox="0 0 49 49" fill="none" xmlns="http://www.w3.org/2000/svg">
<g clip-path="url(#clip0_154_639)">
<path d="M26.3496 28.8521L34.4044 36.1914H14.1861L22.2409 28.8521H26.3496ZM12.391 22.0442L12.3987 34.7398L20.019 27.7965L12.391 22.0442ZM48.5714 24.2857C48.5714 37.6769 37.6769 48.5714 24.2857 48.5714C10.8945 48.5714 0 37.6769 0 24.2857C0 10.8946 10.8945 0 24.2857 0C37.6769 0 48.5714 10.8946 48.5714 24.2857ZM38.4681 35.5025V19.7345C38.4681 19.3613 38.2852 19.0119 37.9786 18.7992L26.439 10.7931C25.1167 9.87574 23.4741 9.87593 22.1524 10.7932L10.6022 18.8077C10.2954 19.0206 10.1125 19.3703 10.1128 19.7437L10.1224 35.5025C10.1224 37.1377 11.4131 38.4681 12.9997 38.4681H35.5909C37.1774 38.4681 38.4681 37.1378 38.4681 35.5025ZM28.543 27.7704L36.1914 34.7393V21.6577L28.543 27.7704ZM26.3915 26.5753L35.1283 19.5928L25.1413 12.6638C24.596 12.2856 23.9955 12.2855 23.4506 12.6638L13.1819 19.789L22.1811 26.5754L26.3915 26.5753Z" fill="white"/>
</g>
<defs>
<clipPath id="clip0_154_639">
<rect width="48.5714" height="48.5714" fill="white"/>
</clipPath>
</defs>
</svg>
