<svg width="49" height="49" viewBox="0 0 49 49" fill="none" xmlns="http://www.w3.org/2000/svg">
<g clip-path="url(#clip0_154_660)">
<path d="M24.2857 0C10.8739 0 0 10.8739 0 24.2857C0 37.6975 10.8739 48.5714 24.2857 48.5714C37.6975 48.5714 48.5714 37.6975 48.5714 24.2857C48.5714 10.8739 37.6975 0 24.2857 0ZM36.214 16.6377L32.2271 35.4186C31.9337 36.7503 31.1403 37.0741 30.0333 36.4467L23.9619 31.9741L21.0354 34.7953C20.7521 35.1596 20.313 35.3923 19.8212 35.3923C19.8171 35.3923 19.8151 35.3923 19.811 35.3923L20.2421 29.2116L31.4945 19.0481C31.9802 18.617 31.3852 18.3721 30.7396 18.8032L16.8381 27.5582L10.8476 25.6882C9.55237 25.2773 9.51594 24.3929 11.1208 23.7575L34.5282 14.7353C35.617 14.3387 36.5641 14.9944 36.212 16.6397L36.214 16.6377Z" fill="white"/>
</g>
<defs>
<clipPath id="clip0_154_660">
<rect width="48.5714" height="48.5714" fill="white"/>
</clipPath>
</defs>
</svg>
