<svg width="213" height="186" viewBox="0 0 213 186" fill="none" xmlns="http://www.w3.org/2000/svg">
<path d="M207 1H208V0H207V1ZM207 185.5L212.773 175.5H201.227L207 185.5ZM0 2H0.995192V0H0V2ZM2.98558 2H4.97596V0H2.98558V2ZM6.96635 2H8.95673V0H6.96635V2ZM10.9471 2H12.9375V0H10.9471V2ZM14.9279 2H16.9183V0H14.9279V2ZM18.9087 2H20.899V0H18.9087V2ZM22.8894 2H24.8798V0H22.8894V2ZM26.8702 2H28.8606V0H26.8702V2ZM30.851 2H32.8414V0H30.851V2ZM34.8317 2H36.8221V0H34.8317V2ZM38.8125 2H40.8029V0H38.8125V2ZM42.7933 2H44.7836V0H42.7933V2ZM46.774 2H48.7644V0H46.774V2ZM50.7548 2H52.7452V0H50.7548V2ZM54.7356 2H56.7259V0H54.7356V2ZM58.7163 2H60.7067V0H58.7163V2ZM62.6971 2H64.6875V0H62.6971V2ZM66.6779 2H68.6683V0H66.6779V2ZM70.6586 2H72.649V0H70.6586V2ZM74.6394 2H76.6298V0H74.6394V2ZM78.6202 2H80.6106V0H78.6202V2ZM82.601 2H84.5914V0H82.601V2ZM86.5817 2H88.5721V0H86.5817V2ZM90.5625 2H92.5529V0H90.5625V2ZM94.5433 2H96.5337V0H94.5433V2ZM98.5241 2H100.514V0H98.5241V2ZM102.505 2H104.495V0H102.505V2ZM106.486 2H108.476V0H106.486V2ZM110.466 2H112.457V0H110.466V2ZM114.447 2H116.438V0H114.447V2ZM118.428 2H120.418V0H118.428V2ZM122.409 2H124.399V0H122.409V2ZM126.389 2H128.38V0H126.389V2ZM130.37 2H132.361V0H130.37V2ZM134.351 2H136.341V0H134.351V2ZM138.332 2H140.322V0H138.332V2ZM142.313 2H144.303V0H142.313V2ZM146.293 2H148.284V0H146.293V2ZM150.274 2H152.265V0H150.274V2ZM154.255 2H156.245V0H154.255V2ZM158.236 2H160.226V0H158.236V2ZM162.216 2H164.207V0H162.216V2ZM166.197 2H168.188V0H166.197V2ZM170.178 2H172.168V0H170.178V2ZM174.159 2H176.149V0H174.159V2ZM178.14 2H180.13V0H178.14V2ZM182.12 2H184.111V0H182.12V2ZM186.101 2H188.091V0H186.101V2ZM190.082 2H192.072V0H190.082V2ZM194.063 2H196.053V0H194.063V2ZM198.043 2H200.034V0H198.043V2ZM202.024 2H204.015V0H202.024V2ZM206.005 2H207V0H206.005V2ZM206 1V2.00272H208V1H206ZM206 4.00815V6.01359H208V4.00815H206ZM206 8.01902V10.0245H208V8.01902H206ZM206 12.0299V14.0353H208V12.0299H206ZM206 16.0408V18.0462H208V16.0408H206ZM206 20.0516V22.0571H208V20.0516H206ZM206 24.0625V26.0679H208V24.0625H206ZM206 28.0734V30.0788H208V28.0734H206ZM206 32.0842V34.0897H208V32.0842H206ZM206 36.0951V38.1005H208V36.0951H206ZM206 40.106V42.1114H208V40.106H206ZM206 44.1168V46.1223H208V44.1168H206ZM206 48.1277V50.1332H208V48.1277H206ZM206 52.1386V54.144H208V52.1386H206ZM206 56.1495V58.1549H208V56.1495H206ZM206 60.1603V62.1658H208V60.1603H206ZM206 64.1712V66.1766H208V64.1712H206ZM206 68.1821V70.1875H208V68.1821H206ZM206 72.1929V74.1984H208V72.1929H206ZM206 76.2038V78.2092H208V76.2038H206ZM206 80.2147V82.2201H208V80.2147H206ZM206 84.2255V86.231H208V84.2255H206ZM206 88.2364V90.2418H208V88.2364H206ZM206 92.2473V94.2527H208V92.2473H206ZM206 96.2581V98.2636H208V96.2581H206ZM206 100.269V102.274H208V100.269H206ZM206 104.28V106.285H208V104.28H206ZM206 108.291V110.296H208V108.291H206ZM206 112.302V114.307H208V112.302H206ZM206 116.312V118.318H208V116.312H206ZM206 120.323V122.329H208V120.323H206ZM206 124.334V126.34H208V124.334H206ZM206 128.345V130.35H208V128.345H206ZM206 132.356V134.361H208V132.356H206ZM206 136.367V138.372H208V136.367H206ZM206 140.378V142.383H208V140.378H206ZM206 144.389V146.394H208V144.389H206ZM206 148.399V150.405H208V148.399H206ZM206 152.41V154.416H208V152.41H206ZM206 156.421V158.427H208V156.421H206ZM206 160.432V162.437H208V160.432H206ZM206 164.443V166.448H208V164.443H206ZM206 168.454V170.459H208V168.454H206ZM206 172.465V174.47H208V172.465H206ZM206 176.475V178.481H208V176.475H206ZM206 180.486V182.492H208V180.486H206Z" fill="black"/>
<path d="M207 1H208V0H207V1ZM207 185.5L212.773 175.5H201.227L207 185.5ZM0 2H0.995192V0H0V2ZM2.98558 2H4.97596V0H2.98558V2ZM6.96635 2H8.95673V0H6.96635V2ZM10.9471 2H12.9375V0H10.9471V2ZM14.9279 2H16.9183V0H14.9279V2ZM18.9087 2H20.899V0H18.9087V2ZM22.8894 2H24.8798V0H22.8894V2ZM26.8702 2H28.8606V0H26.8702V2ZM30.851 2H32.8414V0H30.851V2ZM34.8317 2H36.8221V0H34.8317V2ZM38.8125 2H40.8029V0H38.8125V2ZM42.7933 2H44.7836V0H42.7933V2ZM46.774 2H48.7644V0H46.774V2ZM50.7548 2H52.7452V0H50.7548V2ZM54.7356 2H56.7259V0H54.7356V2ZM58.7163 2H60.7067V0H58.7163V2ZM62.6971 2H64.6875V0H62.6971V2ZM66.6779 2H68.6683V0H66.6779V2ZM70.6586 2H72.649V0H70.6586V2ZM74.6394 2H76.6298V0H74.6394V2ZM78.6202 2H80.6106V0H78.6202V2ZM82.601 2H84.5914V0H82.601V2ZM86.5817 2H88.5721V0H86.5817V2ZM90.5625 2H92.5529V0H90.5625V2ZM94.5433 2H96.5337V0H94.5433V2ZM98.5241 2H100.514V0H98.5241V2ZM102.505 2H104.495V0H102.505V2ZM106.486 2H108.476V0H106.486V2ZM110.466 2H112.457V0H110.466V2ZM114.447 2H116.438V0H114.447V2ZM118.428 2H120.418V0H118.428V2ZM122.409 2H124.399V0H122.409V2ZM126.389 2H128.38V0H126.389V2ZM130.37 2H132.361V0H130.37V2ZM134.351 2H136.341V0H134.351V2ZM138.332 2H140.322V0H138.332V2ZM142.313 2H144.303V0H142.313V2ZM146.293 2H148.284V0H146.293V2ZM150.274 2H152.265V0H150.274V2ZM154.255 2H156.245V0H154.255V2ZM158.236 2H160.226V0H158.236V2ZM162.216 2H164.207V0H162.216V2ZM166.197 2H168.188V0H166.197V2ZM170.178 2H172.168V0H170.178V2ZM174.159 2H176.149V0H174.159V2ZM178.14 2H180.13V0H178.14V2ZM182.12 2H184.111V0H182.12V2ZM186.101 2H188.091V0H186.101V2ZM190.082 2H192.072V0H190.082V2ZM194.063 2H196.053V0H194.063V2ZM198.043 2H200.034V0H198.043V2ZM202.024 2H204.015V0H202.024V2ZM206.005 2H207V0H206.005V2ZM206 1V2.00272H208V1H206ZM206 4.00815V6.01359H208V4.00815H206ZM206 8.01902V10.0245H208V8.01902H206ZM206 12.0299V14.0353H208V12.0299H206ZM206 16.0408V18.0462H208V16.0408H206ZM206 20.0516V22.0571H208V20.0516H206ZM206 24.0625V26.0679H208V24.0625H206ZM206 28.0734V30.0788H208V28.0734H206ZM206 32.0842V34.0897H208V32.0842H206ZM206 36.0951V38.1005H208V36.0951H206ZM206 40.106V42.1114H208V40.106H206ZM206 44.1168V46.1223H208V44.1168H206ZM206 48.1277V50.1332H208V48.1277H206ZM206 52.1386V54.144H208V52.1386H206ZM206 56.1495V58.1549H208V56.1495H206ZM206 60.1603V62.1658H208V60.1603H206ZM206 64.1712V66.1766H208V64.1712H206ZM206 68.1821V70.1875H208V68.1821H206ZM206 72.1929V74.1984H208V72.1929H206ZM206 76.2038V78.2092H208V76.2038H206ZM206 80.2147V82.2201H208V80.2147H206ZM206 84.2255V86.231H208V84.2255H206ZM206 88.2364V90.2418H208V88.2364H206ZM206 92.2473V94.2527H208V92.2473H206ZM206 96.2581V98.2636H208V96.2581H206ZM206 100.269V102.274H208V100.269H206ZM206 104.28V106.285H208V104.28H206ZM206 108.291V110.296H208V108.291H206ZM206 112.302V114.307H208V112.302H206ZM206 116.312V118.318H208V116.312H206ZM206 120.323V122.329H208V120.323H206ZM206 124.334V126.34H208V124.334H206ZM206 128.345V130.35H208V128.345H206ZM206 132.356V134.361H208V132.356H206ZM206 136.367V138.372H208V136.367H206ZM206 140.378V142.383H208V140.378H206ZM206 144.389V146.394H208V144.389H206ZM206 148.399V150.405H208V148.399H206ZM206 152.41V154.416H208V152.41H206ZM206 156.421V158.427H208V156.421H206ZM206 160.432V162.437H208V160.432H206ZM206 164.443V166.448H208V164.443H206ZM206 168.454V170.459H208V168.454H206ZM206 172.465V174.47H208V172.465H206ZM206 176.475V178.481H208V176.475H206ZM206 180.486V182.492H208V180.486H206Z" fill="url(#paint0_linear_130_545)"/>
<defs>
<linearGradient id="paint0_linear_130_545" x1="23" y1="92.8256" x2="214.5" y2="92.8256" gradientUnits="userSpaceOnUse">
<stop stop-color="white"/>
<stop offset="1" stop-color="#2B660B"/>
</linearGradient>
</defs>
</svg>
