<svg width="49" height="50" viewBox="0 0 49 50" fill="none" xmlns="http://www.w3.org/2000/svg">
<g clip-path="url(#clip0_154_642)">
<path d="M24.2857 11.3398C18.9497 11.3398 15.7637 14.6753 15.7637 20.2618C15.7637 23.4409 19.9879 30.7858 24.2842 36.6501C28.5547 30.7661 32.8077 23.5123 32.8077 20.2618C32.8077 14.6753 29.6217 11.3398 24.2857 11.3398ZM24.2766 24.0845C22.2093 24.0845 20.5336 22.4088 20.5336 20.3415C20.5336 18.2742 22.2093 16.5985 24.2766 16.5985C26.3439 16.5985 28.0196 18.2742 28.0196 20.3415C28.0196 22.4088 26.3439 24.0845 24.2766 24.0845Z" fill="white"/>
<path d="M24.2857 0.713867C10.8732 0.713867 0 11.587 0 24.9996C0 38.4121 10.8732 49.2852 24.2857 49.2852C37.6982 49.2852 48.5714 38.4121 48.5714 24.9996C48.5714 11.587 37.6982 0.713867 24.2857 0.713867ZM25.7079 39.829L24.2857 41.696L22.8718 39.829C21.8313 38.469 12.728 26.3155 12.728 20.2608C12.728 12.9971 17.2618 8.30314 24.2857 8.30314C31.3096 8.30314 35.8434 12.9971 35.8434 20.2608C35.8434 26.3064 26.7393 38.4599 25.7079 39.829Z" fill="white"/>
</g>
<defs>
<clipPath id="clip0_154_642">
<rect width="48.5714" height="48.5714" fill="white" transform="translate(0 0.713867)"/>
</clipPath>
</defs>
</svg>
