<svg width="49" height="49" viewBox="0 0 49 49" fill="none" xmlns="http://www.w3.org/2000/svg">
<g clip-path="url(#clip0_154_662)">
<path d="M24.2858 -0.00195312C10.8736 -0.00195312 0.00012207 10.8711 0.00012207 24.2837C0.00012207 37.6964 10.8736 48.5694 24.2858 48.5694C37.698 48.5694 48.5715 37.6964 48.5715 24.2837C48.5715 10.8711 37.698 -0.00195312 24.2858 -0.00195312ZM36.6048 26.9103C37.7367 28.0159 38.9342 29.0564 39.9504 30.2763C40.4006 30.8159 40.8249 31.3739 41.1479 32.0015C41.609 32.8964 41.1926 33.8778 40.3916 33.9309L35.4162 33.9299C34.1313 34.0363 33.1087 33.518 32.2465 32.6395C31.5583 31.9394 30.9198 31.1915 30.257 30.4676C29.9862 30.1704 29.701 29.8907 29.3611 29.6706C28.6828 29.2293 28.0935 29.3645 27.7049 30.073C27.3089 30.794 27.2185 31.593 27.1807 32.3955C27.1265 33.5687 26.7728 33.8753 25.5956 33.9304C23.0803 34.0482 20.6938 33.6666 18.4756 32.3985C16.5189 31.28 15.0043 29.7014 13.6846 27.914C11.1146 24.4298 9.14645 20.6057 7.378 16.6718C6.97999 15.7859 7.27117 15.3118 8.24856 15.2934C9.87241 15.2621 11.4963 15.2661 13.1201 15.2919C13.781 15.3024 14.2182 15.6805 14.4722 16.3041C15.3497 18.4631 16.4254 20.5173 17.7735 22.4224C18.1328 22.9297 18.4995 23.4355 19.0217 23.7938C19.5981 24.1893 20.0374 24.0586 20.3092 23.4152C20.4831 23.0062 20.5581 22.569 20.5959 22.1307C20.7251 20.6296 20.7405 19.129 20.5169 17.6338C20.3777 16.6982 19.8515 16.0939 18.9189 15.917C18.4438 15.8271 18.5134 15.6512 18.7444 15.3799C19.1454 14.9108 19.5211 14.6206 20.2719 14.6206L25.8933 14.6196C26.7792 14.7936 26.978 15.1911 27.0982 16.0835L27.1032 22.3304C27.0928 22.6758 27.2766 23.6994 27.8967 23.9255C28.3936 24.0894 28.7216 23.6909 29.0187 23.3764C30.3668 21.9458 31.3273 20.2574 32.1874 18.5098C32.567 17.7391 32.8945 16.9416 33.2125 16.1426C33.449 15.5518 33.8167 15.2611 34.4836 15.2711L39.8967 15.2775C40.0562 15.2775 40.2182 15.279 40.3762 15.3064C41.2885 15.4624 41.5385 15.8549 41.2562 16.7449C40.812 18.1431 39.9489 19.3078 39.1052 20.4755C38.2008 21.7257 37.2364 22.9322 36.3409 24.1878C35.5181 25.3357 35.5832 25.9135 36.6048 26.9103Z" fill="white"/>
</g>
<defs>
<clipPath id="clip0_154_662">
<rect width="48.5714" height="48.5714" fill="white"/>
</clipPath>
</defs>
</svg>
