<svg width="49" height="49" viewBox="0 0 49 49" fill="none" xmlns="http://www.w3.org/2000/svg">
<path d="M44.7646 11.1575C37.5271 -0.000368837 22.7505 -3.31756 11.2912 3.61838C0.13333 10.5543 -3.48542 25.6325 3.75208 36.7903L4.35521 37.695L1.94271 46.7418L10.9896 44.3293L11.8943 44.9325C15.8146 47.0434 20.0365 48.2497 24.2583 48.2497C28.7818 48.2497 33.3052 47.0434 37.2255 44.6309C48.3834 37.3934 51.7006 22.6168 44.7646 11.1575ZM38.4318 34.3778C37.2255 36.1872 35.7177 37.3934 33.6068 37.695C32.4005 37.695 30.8927 38.2981 24.8615 35.8856C19.7349 33.4731 15.513 29.5528 12.4974 25.0293C10.688 22.9184 9.78334 20.2043 9.48177 17.4903C9.48177 15.0778 10.3865 12.9668 11.8943 11.459C12.4974 10.8559 13.1005 10.5543 13.7037 10.5543H15.2115C15.8146 10.5543 16.4177 10.5543 16.7193 11.7606C17.3224 13.2684 18.8302 16.8871 18.8302 17.1887C19.1318 17.4903 19.1318 18.0934 18.8302 18.395C19.1318 18.9981 18.8302 19.6012 18.5287 19.9028C18.2271 20.2043 17.9255 20.8075 17.624 21.109C17.0208 21.4106 16.7193 22.0137 17.0208 22.6168C18.2271 24.4262 19.7349 26.2356 21.2427 27.7434C23.0521 29.2512 24.8615 30.4575 26.9724 31.3622C27.5755 31.6637 28.1787 31.6637 28.4802 31.0606C28.7818 30.4575 30.2896 28.9496 30.8927 28.3465C31.4958 27.7434 31.7974 27.7434 32.4005 28.045L37.2255 30.4575C37.8287 30.759 38.4318 31.0606 38.7334 31.3622C39.0349 32.2668 39.0349 33.4731 38.4318 34.3778Z" fill="white"/>
</svg>
