<svg width="49" height="50" viewBox="0 0 49 50" fill="none" xmlns="http://www.w3.org/2000/svg">
<g clip-path="url(#clip0_154_649)">
<path d="M41.4583 7.82692C36.8713 3.24005 30.7726 0.713867 24.2857 0.713867C17.7987 0.713867 11.7001 3.24005 7.11305 7.82692C2.52619 12.414 0 18.5126 0 24.9996C0 31.4865 2.52619 37.5851 7.11305 42.1722C11.7001 46.759 17.7987 49.2852 24.2857 49.2852C30.7726 49.2852 36.8713 46.759 41.4583 42.1722C46.0452 37.5851 48.5714 31.4865 48.5714 24.9996C48.5714 18.5126 46.0452 12.414 41.4583 7.82692ZM24.2857 43.9412C13.8412 43.9412 5.34408 35.444 5.34408 24.9996C5.34408 14.5551 13.8412 6.05795 24.2857 6.05795C34.7301 6.05795 43.2273 14.5551 43.2273 24.9996C43.2273 35.444 34.7301 43.9412 24.2857 43.9412Z" fill="white"/>
<path d="M35.3463 33.0277L36.7692 30.5631L38.88 31.7818C39.6519 30.1276 40.1505 28.3216 40.3176 26.4218H37.8789V23.5759H40.3176C40.1504 21.676 39.6518 19.87 38.88 18.2159L36.7692 19.4346L35.3463 16.97L37.4534 15.7534C36.3816 14.2315 35.0531 12.903 33.5312 11.8312L32.3146 13.9383L29.85 12.5154L31.0687 10.4046C29.4145 9.63266 27.6085 9.13414 25.7087 8.96689V11.4056H22.8628V8.9668C20.9629 9.13405 19.1569 9.63257 17.5028 10.4045L18.7215 12.5153L16.2569 13.9382L15.0403 11.8311C13.5184 12.9029 12.1899 14.2314 11.1181 15.7533L13.2252 16.9699L11.8022 19.4345L9.69147 18.2158C8.91954 19.87 8.42102 21.676 8.25387 23.5758H10.6926V26.4218H8.25368C8.42093 28.3216 8.91945 30.1276 9.69128 31.7817L11.802 30.563L13.225 33.0276L11.1179 34.2442C12.1897 35.7661 13.5182 37.0946 15.0401 38.1664L16.2567 36.0593L18.7213 37.4823L17.5026 39.593C19.1568 40.365 20.9628 40.8635 22.8626 41.0307V38.592H25.7085V41.0307C27.6084 40.8635 29.4144 40.365 31.0685 39.593L29.8498 37.4823L32.3144 36.0593L33.531 38.1664C35.0529 37.0946 36.3814 35.7661 37.4532 34.2442L35.3463 33.0277ZM29.7995 29.9276L22.8627 25.8088V14.7607H25.7086V24.1888L31.2525 27.4805L29.7995 29.9276Z" fill="white"/>
</g>
<defs>
<clipPath id="clip0_154_649">
<rect width="48.5714" height="48.5714" fill="white" transform="translate(0 0.713867)"/>
</clipPath>
</defs>
</svg>
